<svg width="219" height="221" viewBox="0 0 219 221" fill="none" xmlns="http://www.w3.org/2000/svg">
<path d="M10.9396 100.226C8.39879 98.8143 2.58786 85.0516 0 78.3467L29.6428 98.1086C29.5251 99.1672 29.9251 107.001 29.6428 108.695C29.2899 110.813 31.4072 121.399 32.113 124.928C32.6024 127.375 44.4642 154.924 47.6402 154.218C50.8162 153.512 55.4038 154.218 57.1682 157.747C58.5798 160.57 57.2858 163.629 56.1095 165.158C54.9332 165.981 51.0279 167.84 47.6402 165.863C44.2524 163.887 44.1113 159.629 44.4642 157.747C32.8188 147.866 19.0561 123.517 20.4676 122.811C21.8792 122.105 22.9379 117.87 22.2321 115.753C21.6631 114.046 18.3503 110.107 14.4685 111.518C11.3631 112.648 10.4691 115.4 10.5867 116.812C9.88093 121.399 13.998 123.634 16.5858 124.575C17.2916 126.81 19.0561 135.162 24.3494 146.102C29.876 157.523 50.6986 176.685 61.05 184.567L47.6402 194.448C24.3494 178.215 13.4098 157.041 7.0578 141.161C2.77825 130.462 1.76445 112.107 1.76445 100.226H10.9396Z" fill="url(#paint0_linear_40_27)"/>
<path d="M197.563 70.573C200.457 70.3057 213.018 78.3938 218.936 82.4712L183.312 82.8694C182.812 81.9288 178.064 75.6849 177.341 74.1269C176.439 72.1794 168.72 64.6311 166.147 62.1149C164.363 60.3703 139.031 44.3101 136.806 46.6841C134.581 49.0581 130.395 51.0625 126.948 49.1434C124.19 47.6082 123.533 44.3528 123.642 42.4266C124.149 41.0833 126.326 37.346 130.238 37.0674C134.15 36.7887 136.669 40.2256 137.439 41.9788C152.628 43.5709 177.725 55.9169 176.958 57.2958C176.19 58.6747 177.704 62.7687 179.481 64.1192C180.913 65.208 185.871 66.5927 188.28 63.2378C190.208 60.5539 189.394 57.7767 188.501 56.6774C186.496 52.4909 181.836 52.9672 179.168 53.6495C177.325 52.2019 171.158 46.3002 160.617 40.2515C149.612 33.9364 121.61 29.8554 108.617 29.185L114.118 13.4627C142.506 13.7326 163.481 25.0481 177.682 34.5795C187.25 41.0011 198.44 55.5875 205.14 65.3985L197.563 70.573Z" fill="url(#paint1_linear_40_27)"/>
<path d="M92.9206 17.3671C93.4446 14.5081 104.623 4.5978 110.147 0L100.913 34.4086C99.8724 34.636 92.5783 37.5225 90.8832 37.7972C88.7643 38.1406 79.4123 43.5351 76.2949 45.3332C74.1334 46.58 51.8306 66.6355 53.5158 69.4186C55.201 72.2016 56.0007 76.7737 53.2222 79.5749C50.9995 81.8158 47.6878 81.5688 45.8626 80.9439C44.706 80.093 41.6952 76.988 42.4831 73.146C43.271 69.3039 47.26 67.8072 49.156 67.5391C54.7897 53.3438 73.453 32.5114 74.5735 33.6228C75.6939 34.7342 80.0447 34.3817 81.8247 33.0354C83.2598 31.9499 85.9315 27.5506 83.3517 24.3248C81.2879 21.7442 78.394 21.7783 77.0943 22.3415C72.5222 23.1412 71.7226 27.7571 71.6594 30.51C69.7679 31.894 62.4203 36.2388 53.7505 44.7552C44.6987 53.6468 33.2093 79.5073 29.056 91.8368L15.4027 82.2951C23.3269 55.0338 39.8849 37.8926 52.8964 26.7919C61.6626 19.3131 78.7282 12.4774 89.9838 8.67464L92.9206 17.3671Z" fill="url(#paint2_linear_40_27)"/>
<path d="M178.71 185.232C179.89 187.888 176.247 202.377 174.279 209.289L162.499 175.667C163.23 174.892 167.626 168.395 168.871 167.212C170.427 165.733 175.107 156.004 176.668 152.761C177.749 150.513 184.857 121.373 181.895 120.025C178.934 118.677 175.695 115.353 176.41 111.472C176.982 108.368 179.856 106.705 181.716 106.191C183.15 106.242 187.388 107.108 188.904 110.725C190.42 114.342 187.97 117.828 186.556 119.118C189.909 134.018 186.246 161.747 184.694 161.461C183.141 161.175 179.747 163.92 179.037 166.035C178.464 167.741 178.739 172.881 182.688 174.09C185.848 175.057 188.218 173.397 188.974 172.199C192.299 168.96 190.356 164.697 188.856 162.388C189.637 160.178 193.254 152.447 195.611 140.524C198.071 128.077 192.975 100.242 189.451 87.7177L206.107 87.8972C214.938 114.878 210.931 138.372 206.447 154.877C203.425 165.997 193.188 181.266 186.038 190.754L178.71 185.232Z" fill="url(#paint3_linear_40_27)"/>
<path d="M63.409 205.366C61.3431 207.367 46.1541 209.037 38.8179 209.622L66.1925 187.186C67.2134 187.588 75.0996 189.373 76.7084 190.106C78.7194 191.022 89.7885 191.951 93.4782 192.26C96.0365 192.475 126.5 188.915 126.629 185.732C126.758 182.549 128.657 178.428 132.624 177.742C135.797 177.192 138.497 179.253 139.708 180.782C140.219 182.116 141.045 186.302 138.197 188.945C135.348 191.587 131.082 190.545 129.305 189.693C116.447 197.924 88.6646 204.155 88.3324 202.632C88.0001 201.109 84.0704 198.945 81.7828 199.025C79.9385 199.089 75.1601 201.119 75.548 205.161C75.8583 208.394 78.3589 209.994 79.7917 210.273C84.1642 212.202 87.4599 208.946 89.0708 206.771C91.4752 206.723 100.232 207.367 112.482 205.405C125.271 203.356 149.745 189.053 160.278 181.488L166.589 196.83C144.38 214.264 120.49 218.715 103.056 220.31C91.3108 221.385 72.813 217.275 61.0118 213.997L63.409 205.366Z" fill="url(#paint4_linear_40_27)"/>
<path d="M89.4685 82H75L66.1925 157.747L89.4685 138.462V108.82L101.114 138.462H115.582L128.639 108.82V138.462L151.5 157.747L142.402 82H128.639L108.877 122.935L89.4685 82Z" fill="url(#paint5_linear_40_27)"/>
<defs>
<linearGradient id="paint0_linear_40_27" x1="108.701" y1="82" x2="108.701" y2="138.462" gradientUnits="userSpaceOnUse">
<stop stop-color="#051622"/>
<stop offset="1" stop-color="#145788"/>
</linearGradient>
<linearGradient id="paint1_linear_40_27" x1="109.468" y1="220.484" x2="109.468" y2="0" gradientUnits="userSpaceOnUse">
<stop stop-color="#051622"/>
<stop offset="1" stop-color="#145788"/>
</linearGradient>
<linearGradient id="paint2_linear_40_27" x1="0" y1="110.242" x2="218.936" y2="110.242" gradientUnits="userSpaceOnUse">
<stop stop-color="#051622"/>
<stop offset="1" stop-color="#145788"/>
</linearGradient>
<linearGradient id="paint3_linear_40_27" x1="109.468" y1="220.484" x2="109.468" y2="0" gradientUnits="userSpaceOnUse">
<stop stop-color="#051622"/>
<stop offset="1" stop-color="#145788"/>
</linearGradient>
<linearGradient id="paint4_linear_40_27" x1="112.431" y1="168.2" x2="96.4805" y2="225.636" gradientUnits="userSpaceOnUse">
<stop stop-color="#051622"/>
<stop offset="1" stop-color="#145788"/>
</linearGradient>
<linearGradient id="paint5_linear_40_27" x1="108.701" y1="82" x2="108.701" y2="138.462" gradientUnits="userSpaceOnUse">
<stop stop-color="#051622"/>
<stop offset="1" stop-color="#145788"/>
</linearGradient>
</defs>
</svg>
